# xmcd
#
# Track frame offsets:
#	150
#	15243
#	30125
#	45816
#	56250
#	70557
#	81119
#	93346
#	105118
#	118416
#	132404
#	150996
#	165215
#	177194
#	191727
#	203321
#	215282
#	228681
#	245224
#	256627
#	274252
#	286644
#	298311
#
# Disc length: 4155 seconds
#
# Revision: 2
# Processed by: cddbd v1.5.2PL0 Copyright (c) Steve Scherf et al.
# Submitted via: EasyCDDAExtractor 16.0.6.1
#
DISCID=20103917
DTITLE=Peter Vesth and Julie Burton - Best Companions
DYEAR=2017
DGENRE=Country - Denmark
TTITLE0=Walking On The Moon
TTITLE1=Somebody's Someone
TTITLE2=When My Blue Moon Turns To Gold Again
TTITLE3=Never Be Anyone Else
TTITLE4=Skabbadabadoo
TTITLE5=Moonlight Swim
TTITLE6=Best Companions
TTITLE7=You Are The Only One
TTITLE8=Sunglasses
TTITLE9=Let Me Be The Only One
TTITLE10=Wintery Feeling
TTITLE11=I Loved You So
TTITLE12=Winternight With You
TTITLE13=Bottle Of Rhum
TTITLE14=Someone I Know Is Calling
TTITLE15=Daydream Believer
TTITLE16=Passport To Paradise
TTITLE17=The Hills Of Tuscany
TTITLE18=Hey Good Looking
TTITLE19=January Snow
TTITLE20=Lily Of The Valley
TTITLE21=Less Of Me
TTITLE22=Christmas Island
EXTD=
EXTT0=
EXTT1=
EXTT2=
EXTT3=
EXTT4=
EXTT5=
EXTT6=
EXTT7=
EXTT8=
EXTT9=
EXTT10=
EXTT11=
EXTT12=
EXTT13=
EXTT14=
EXTT15=
EXTT16=
EXTT17=
EXTT18=
EXTT19=
EXTT20=
EXTT21=
EXTT22=
PLAYORDER=
